<mxfile host="app.diagrams.net" modified="2023-10-22T18:50:14.646Z" agent="Mozilla/5.0 (Windows NT 10.0; Win64; x64) AppleWebKit/537.36 (KHTML, like Gecko) Chrome/116.0.5845.888 YaBrowser/23.9.2.888 Yowser/2.5 Safari/537.36" version="22.0.6" etag="GyGEsHXkflWVr8B7JrHo" type="github">
  <diagram name="Страница — 1" id="IYAcRacl9Q5V2tO71k9M">
    <mxGraphModel>
      <root>
        <mxCell id="0" />
        <mxCell id="1" parent="0" />
      </root>
    </mxGraphModel>
  </diagram>
</mxfile>
